<mxfile host="app.diagrams.net" modified="2022-12-01T15:12:55.947Z" agent="5.0 (Windows NT 10.0; Win64; x64) AppleWebKit/537.36 (KHTML, like Gecko) Chrome/107.0.0.0 Safari/537.36 Edg/107.0.1418.56" etag="7sTU12gtpeGavt8ipGoe" version="20.6.0" type="github">
  <diagram id="R2lEEEUBdFMjLlhIrx00" name="Page-1">
    <mxGraphModel dx="989" dy="471" grid="1" gridSize="10" guides="1" tooltips="1" connect="1" arrows="1" fold="1" page="1" pageScale="1" pageWidth="1200" pageHeight="1600" math="0" shadow="0" extFonts="Permanent Marker^https://fonts.googleapis.com/css?family=Permanent+Marker">
      <root>
        <mxCell id="0" />
        <mxCell id="1" parent="0" />
        <mxCell id="-RiXx9IOLwMkelzJSr5v-51" value="staffs" style="rounded=1;arcSize=10;whiteSpace=wrap;html=1;align=center;" parent="1" vertex="1">
          <mxGeometry x="880" y="1060" width="100" height="40" as="geometry" />
        </mxCell>
        <mxCell id="-RiXx9IOLwMkelzJSr5v-71" value="" style="endArrow=none;html=1;rounded=0;exitX=0.5;exitY=1;exitDx=0;exitDy=0;" parent="1" target="-RiXx9IOLwMkelzJSr5v-51" edge="1" source="-RiXx9IOLwMkelzJSr5v-85">
          <mxGeometry relative="1" as="geometry">
            <mxPoint x="850" y="1020" as="sourcePoint" />
            <mxPoint x="930" y="1070" as="targetPoint" />
          </mxGeometry>
        </mxCell>
        <mxCell id="-RiXx9IOLwMkelzJSr5v-72" value="" style="endArrow=none;html=1;rounded=0;entryX=0.5;entryY=0;entryDx=0;entryDy=0;" parent="1" target="-RiXx9IOLwMkelzJSr5v-51" edge="1">
          <mxGeometry relative="1" as="geometry">
            <mxPoint x="970" y="1020" as="sourcePoint" />
            <mxPoint x="970" y="1070" as="targetPoint" />
          </mxGeometry>
        </mxCell>
        <mxCell id="-RiXx9IOLwMkelzJSr5v-73" value="" style="endArrow=none;html=1;rounded=0;exitX=0;exitY=1;exitDx=0;exitDy=0;" parent="1" source="-RiXx9IOLwMkelzJSr5v-87" target="-RiXx9IOLwMkelzJSr5v-51" edge="1">
          <mxGeometry relative="1" as="geometry">
            <mxPoint x="1085.00673681128" y="1017.3220635961427" as="sourcePoint" />
            <mxPoint x="1030" y="1070" as="targetPoint" />
          </mxGeometry>
        </mxCell>
        <mxCell id="-RiXx9IOLwMkelzJSr5v-75" value="" style="endArrow=none;html=1;rounded=0;exitX=0.25;exitY=1;exitDx=0;exitDy=0;" parent="1" source="-RiXx9IOLwMkelzJSr5v-51" edge="1">
          <mxGeometry relative="1" as="geometry">
            <mxPoint x="930" y="1100" as="sourcePoint" />
            <mxPoint x="868.5695338177052" y="1161.4304661822948" as="targetPoint" />
          </mxGeometry>
        </mxCell>
        <mxCell id="-RiXx9IOLwMkelzJSr5v-77" value="" style="endArrow=none;html=1;rounded=0;" parent="1" source="-RiXx9IOLwMkelzJSr5v-51" edge="1">
          <mxGeometry relative="1" as="geometry">
            <mxPoint x="1070" y="1120" as="sourcePoint" />
            <mxPoint x="1084.9861201062702" y="1162.6826985351101" as="targetPoint" />
          </mxGeometry>
        </mxCell>
        <mxCell id="-RiXx9IOLwMkelzJSr5v-78" value="" style="endArrow=none;html=1;rounded=0;entryX=0.4;entryY=0;entryDx=0;entryDy=0;entryPerimeter=0;exitX=0.5;exitY=1;exitDx=0;exitDy=0;" parent="1" source="-RiXx9IOLwMkelzJSr5v-51" edge="1">
          <mxGeometry relative="1" as="geometry">
            <mxPoint x="970" y="1130" as="sourcePoint" />
            <mxPoint x="980" y="1160" as="targetPoint" />
          </mxGeometry>
        </mxCell>
        <mxCell id="-RiXx9IOLwMkelzJSr5v-81" value="position" style="ellipse;shape=doubleEllipse;margin=3;whiteSpace=wrap;html=1;align=center;" parent="1" vertex="1">
          <mxGeometry x="1060" y="1150" width="100" height="40" as="geometry" />
        </mxCell>
        <mxCell id="-RiXx9IOLwMkelzJSr5v-85" value="id" style="ellipse;whiteSpace=wrap;html=1;align=center;fontStyle=4;" parent="1" vertex="1">
          <mxGeometry x="840" y="950" width="100" height="40" as="geometry" />
        </mxCell>
        <mxCell id="-RiXx9IOLwMkelzJSr5v-86" value="(name)" style="ellipse;whiteSpace=wrap;html=1;align=center;" parent="1" vertex="1">
          <mxGeometry x="930" y="990" width="100" height="40" as="geometry" />
        </mxCell>
        <mxCell id="-RiXx9IOLwMkelzJSr5v-87" value="phone" style="ellipse;whiteSpace=wrap;html=1;align=center;" parent="1" vertex="1">
          <mxGeometry x="1060" y="990" width="100" height="40" as="geometry" />
        </mxCell>
        <mxCell id="-RiXx9IOLwMkelzJSr5v-88" value="address" style="ellipse;whiteSpace=wrap;html=1;align=center;" parent="1" vertex="1">
          <mxGeometry x="800" y="1150" width="100" height="40" as="geometry" />
        </mxCell>
        <mxCell id="-RiXx9IOLwMkelzJSr5v-89" value="birth" style="ellipse;whiteSpace=wrap;html=1;align=center;" parent="1" vertex="1">
          <mxGeometry x="930" y="1150" width="100" height="40" as="geometry" />
        </mxCell>
        <mxCell id="-RiXx9IOLwMkelzJSr5v-90" value="firstname" style="ellipse;whiteSpace=wrap;html=1;align=center;" parent="1" vertex="1">
          <mxGeometry x="930" y="910" width="100" height="40" as="geometry" />
        </mxCell>
        <mxCell id="-RiXx9IOLwMkelzJSr5v-91" value="lastname" style="ellipse;whiteSpace=wrap;html=1;align=center;" parent="1" vertex="1">
          <mxGeometry x="1060" y="910" width="100" height="40" as="geometry" />
        </mxCell>
        <mxCell id="-RiXx9IOLwMkelzJSr5v-92" value="" style="endArrow=none;html=1;rounded=0;exitX=0.5;exitY=1;exitDx=0;exitDy=0;" parent="1" source="-RiXx9IOLwMkelzJSr5v-90" target="-RiXx9IOLwMkelzJSr5v-86" edge="1">
          <mxGeometry relative="1" as="geometry">
            <mxPoint x="900" y="930" as="sourcePoint" />
            <mxPoint x="1060" y="930" as="targetPoint" />
          </mxGeometry>
        </mxCell>
        <mxCell id="-RiXx9IOLwMkelzJSr5v-93" value="" style="endArrow=none;html=1;rounded=0;exitX=0.28;exitY=0.95;exitDx=0;exitDy=0;exitPerimeter=0;entryX=0.674;entryY=0.029;entryDx=0;entryDy=0;entryPerimeter=0;" parent="1" source="-RiXx9IOLwMkelzJSr5v-91" target="-RiXx9IOLwMkelzJSr5v-86" edge="1">
          <mxGeometry relative="1" as="geometry">
            <mxPoint x="1000" y="950" as="sourcePoint" />
            <mxPoint x="1000" y="980" as="targetPoint" />
          </mxGeometry>
        </mxCell>
        <mxCell id="-RiXx9IOLwMkelzJSr5v-110" value="students" style="rounded=1;arcSize=10;whiteSpace=wrap;html=1;align=center;" parent="1" vertex="1">
          <mxGeometry x="840" y="670" width="100" height="40" as="geometry" />
        </mxCell>
        <mxCell id="-RiXx9IOLwMkelzJSr5v-111" value="" style="endArrow=none;html=1;rounded=0;exitX=1;exitY=1;exitDx=0;exitDy=0;" parent="1" source="-RiXx9IOLwMkelzJSr5v-118" target="-RiXx9IOLwMkelzJSr5v-110" edge="1">
          <mxGeometry relative="1" as="geometry">
            <mxPoint x="780" y="630" as="sourcePoint" />
            <mxPoint x="860" y="680" as="targetPoint" />
          </mxGeometry>
        </mxCell>
        <mxCell id="-RiXx9IOLwMkelzJSr5v-112" value="" style="endArrow=none;html=1;rounded=0;entryX=0.587;entryY=-0.006;entryDx=0;entryDy=0;entryPerimeter=0;startArrow=none;" parent="1" source="-RiXx9IOLwMkelzJSr5v-119" target="-RiXx9IOLwMkelzJSr5v-110" edge="1">
          <mxGeometry relative="1" as="geometry">
            <mxPoint x="900" y="630" as="sourcePoint" />
            <mxPoint x="900" y="680" as="targetPoint" />
          </mxGeometry>
        </mxCell>
        <mxCell id="-RiXx9IOLwMkelzJSr5v-113" value="" style="endArrow=none;html=1;rounded=0;exitX=0.345;exitY=0.952;exitDx=0;exitDy=0;exitPerimeter=0;" parent="1" source="-RiXx9IOLwMkelzJSr5v-120" target="-RiXx9IOLwMkelzJSr5v-110" edge="1">
          <mxGeometry relative="1" as="geometry">
            <mxPoint x="1015.00673681128" y="627.3220635961427" as="sourcePoint" />
            <mxPoint x="960" y="680" as="targetPoint" />
          </mxGeometry>
        </mxCell>
        <mxCell id="-RiXx9IOLwMkelzJSr5v-114" value="" style="endArrow=none;html=1;rounded=0;exitX=0.25;exitY=1;exitDx=0;exitDy=0;entryX=1;entryY=0;entryDx=0;entryDy=0;" parent="1" source="-RiXx9IOLwMkelzJSr5v-110" target="-RiXx9IOLwMkelzJSr5v-121" edge="1">
          <mxGeometry relative="1" as="geometry">
            <mxPoint x="860" y="710" as="sourcePoint" />
            <mxPoint x="798.5695338177052" y="771.4304661822948" as="targetPoint" />
          </mxGeometry>
        </mxCell>
        <mxCell id="-RiXx9IOLwMkelzJSr5v-116" value="" style="endArrow=none;html=1;rounded=0;entryX=0.5;entryY=0;entryDx=0;entryDy=0;exitX=0.5;exitY=1;exitDx=0;exitDy=0;" parent="1" source="-RiXx9IOLwMkelzJSr5v-110" target="-RiXx9IOLwMkelzJSr5v-122" edge="1">
          <mxGeometry relative="1" as="geometry">
            <mxPoint x="900" y="740" as="sourcePoint" />
            <mxPoint x="910" y="770" as="targetPoint" />
          </mxGeometry>
        </mxCell>
        <mxCell id="-RiXx9IOLwMkelzJSr5v-118" value="id" style="ellipse;whiteSpace=wrap;html=1;align=center;fontStyle=4;" parent="1" vertex="1">
          <mxGeometry x="730" y="600" width="100" height="40" as="geometry" />
        </mxCell>
        <mxCell id="-RiXx9IOLwMkelzJSr5v-120" value="phone" style="ellipse;whiteSpace=wrap;html=1;align=center;" parent="1" vertex="1">
          <mxGeometry x="970" y="600" width="100" height="40" as="geometry" />
        </mxCell>
        <mxCell id="-RiXx9IOLwMkelzJSr5v-121" value="address" style="ellipse;whiteSpace=wrap;html=1;align=center;" parent="1" vertex="1">
          <mxGeometry x="870" y="760" width="100" height="40" as="geometry" />
        </mxCell>
        <mxCell id="-RiXx9IOLwMkelzJSr5v-122" value="birth" style="ellipse;whiteSpace=wrap;html=1;align=center;" parent="1" vertex="1">
          <mxGeometry x="990" y="760" width="100" height="40" as="geometry" />
        </mxCell>
        <mxCell id="-RiXx9IOLwMkelzJSr5v-123" value="firstname" style="ellipse;whiteSpace=wrap;html=1;align=center;" parent="1" vertex="1">
          <mxGeometry x="780" y="530" width="100" height="40" as="geometry" />
        </mxCell>
        <mxCell id="-RiXx9IOLwMkelzJSr5v-124" value="lastname" style="ellipse;whiteSpace=wrap;html=1;align=center;" parent="1" vertex="1">
          <mxGeometry x="910" y="530" width="100" height="40" as="geometry" />
        </mxCell>
        <mxCell id="-RiXx9IOLwMkelzJSr5v-125" value="" style="endArrow=none;html=1;rounded=0;exitX=0.5;exitY=1;exitDx=0;exitDy=0;" parent="1" source="-RiXx9IOLwMkelzJSr5v-123" target="-RiXx9IOLwMkelzJSr5v-119" edge="1">
          <mxGeometry relative="1" as="geometry">
            <mxPoint x="830" y="540" as="sourcePoint" />
            <mxPoint x="990" y="540" as="targetPoint" />
          </mxGeometry>
        </mxCell>
        <mxCell id="-RiXx9IOLwMkelzJSr5v-126" value="" style="endArrow=none;html=1;rounded=0;exitX=0.28;exitY=0.95;exitDx=0;exitDy=0;exitPerimeter=0;entryX=0.674;entryY=0.029;entryDx=0;entryDy=0;entryPerimeter=0;" parent="1" source="-RiXx9IOLwMkelzJSr5v-124" target="-RiXx9IOLwMkelzJSr5v-119" edge="1">
          <mxGeometry relative="1" as="geometry">
            <mxPoint x="930" y="560" as="sourcePoint" />
            <mxPoint x="930" y="590" as="targetPoint" />
          </mxGeometry>
        </mxCell>
        <mxCell id="-RiXx9IOLwMkelzJSr5v-127" value="age" style="ellipse;whiteSpace=wrap;html=1;align=center;dashed=1;" parent="1" vertex="1">
          <mxGeometry x="970" y="670" width="100" height="40" as="geometry" />
        </mxCell>
        <mxCell id="-RiXx9IOLwMkelzJSr5v-128" value="" style="endArrow=none;html=1;rounded=0;entryX=1.001;entryY=0.388;entryDx=0;entryDy=0;exitX=0;exitY=0.5;exitDx=0;exitDy=0;entryPerimeter=0;" parent="1" source="-RiXx9IOLwMkelzJSr5v-127" target="-RiXx9IOLwMkelzJSr5v-110" edge="1">
          <mxGeometry relative="1" as="geometry">
            <mxPoint x="820" y="690" as="sourcePoint" />
            <mxPoint x="960" y="690" as="targetPoint" />
          </mxGeometry>
        </mxCell>
        <mxCell id="-RiXx9IOLwMkelzJSr5v-129" value="age" style="ellipse;whiteSpace=wrap;html=1;align=center;dashed=1;" parent="1" vertex="1">
          <mxGeometry x="770" y="1100" width="100" height="40" as="geometry" />
        </mxCell>
        <mxCell id="-RiXx9IOLwMkelzJSr5v-130" value="" style="endArrow=none;html=1;rounded=0;entryX=0;entryY=0.75;entryDx=0;entryDy=0;exitX=1;exitY=0.5;exitDx=0;exitDy=0;" parent="1" source="-RiXx9IOLwMkelzJSr5v-129" target="-RiXx9IOLwMkelzJSr5v-51" edge="1">
          <mxGeometry relative="1" as="geometry">
            <mxPoint x="895" y="1080" as="sourcePoint" />
            <mxPoint x="930" y="1090" as="targetPoint" />
          </mxGeometry>
        </mxCell>
        <mxCell id="-RiXx9IOLwMkelzJSr5v-119" value="(name)" style="ellipse;whiteSpace=wrap;html=1;align=center;" parent="1" vertex="1">
          <mxGeometry x="850" y="600" width="100" height="40" as="geometry" />
        </mxCell>
        <mxCell id="-RiXx9IOLwMkelzJSr5v-137" value="courses" style="rounded=1;arcSize=10;whiteSpace=wrap;html=1;align=center;" parent="1" vertex="1">
          <mxGeometry x="295" y="670" width="100" height="40" as="geometry" />
        </mxCell>
        <mxCell id="-RiXx9IOLwMkelzJSr5v-138" value="id" style="ellipse;whiteSpace=wrap;html=1;align=center;fontStyle=4;" parent="1" vertex="1">
          <mxGeometry x="177.5" y="760" width="100" height="40" as="geometry" />
        </mxCell>
        <mxCell id="-RiXx9IOLwMkelzJSr5v-139" value="name" style="ellipse;whiteSpace=wrap;html=1;align=center;fontStyle=4;" parent="1" vertex="1">
          <mxGeometry x="310" y="760" width="100" height="40" as="geometry" />
        </mxCell>
        <mxCell id="-RiXx9IOLwMkelzJSr5v-141" value="" style="endArrow=none;html=1;rounded=0;exitX=0.5;exitY=0;exitDx=0;exitDy=0;entryX=0.25;entryY=1;entryDx=0;entryDy=0;" parent="1" source="-RiXx9IOLwMkelzJSr5v-138" target="-RiXx9IOLwMkelzJSr5v-137" edge="1">
          <mxGeometry relative="1" as="geometry">
            <mxPoint x="220" y="700" as="sourcePoint" />
            <mxPoint x="360" y="700" as="targetPoint" />
          </mxGeometry>
        </mxCell>
        <mxCell id="-RiXx9IOLwMkelzJSr5v-142" value="" style="endArrow=none;html=1;rounded=0;exitX=0.5;exitY=0;exitDx=0;exitDy=0;" parent="1" source="-RiXx9IOLwMkelzJSr5v-139" target="-RiXx9IOLwMkelzJSr5v-137" edge="1">
          <mxGeometry relative="1" as="geometry">
            <mxPoint x="480" y="660" as="sourcePoint" />
            <mxPoint x="640" y="660" as="targetPoint" />
          </mxGeometry>
        </mxCell>
        <mxCell id="-RiXx9IOLwMkelzJSr5v-143" value="gender" style="ellipse;whiteSpace=wrap;html=1;align=center;" parent="1" vertex="1">
          <mxGeometry x="1060" y="1070" width="100" height="40" as="geometry" />
        </mxCell>
        <mxCell id="-RiXx9IOLwMkelzJSr5v-144" value="" style="endArrow=none;html=1;rounded=0;exitX=1;exitY=0.5;exitDx=0;exitDy=0;entryX=0;entryY=0.5;entryDx=0;entryDy=0;" parent="1" source="-RiXx9IOLwMkelzJSr5v-51" target="-RiXx9IOLwMkelzJSr5v-143" edge="1">
          <mxGeometry relative="1" as="geometry">
            <mxPoint x="1095" y="1050" as="sourcePoint" />
            <mxPoint x="1255" y="1050" as="targetPoint" />
          </mxGeometry>
        </mxCell>
        <mxCell id="-RiXx9IOLwMkelzJSr5v-145" value="gender" style="ellipse;whiteSpace=wrap;html=1;align=center;" parent="1" vertex="1">
          <mxGeometry x="740" y="760" width="100" height="40" as="geometry" />
        </mxCell>
        <mxCell id="-RiXx9IOLwMkelzJSr5v-146" value="" style="endArrow=none;html=1;rounded=0;exitX=1;exitY=0.5;exitDx=0;exitDy=0;entryX=0.25;entryY=1;entryDx=0;entryDy=0;" parent="1" source="-RiXx9IOLwMkelzJSr5v-145" target="-RiXx9IOLwMkelzJSr5v-110" edge="1">
          <mxGeometry relative="1" as="geometry">
            <mxPoint x="810" y="690" as="sourcePoint" />
            <mxPoint x="830" y="690" as="targetPoint" />
          </mxGeometry>
        </mxCell>
        <mxCell id="-RiXx9IOLwMkelzJSr5v-147" value="subjects" style="rounded=1;arcSize=10;whiteSpace=wrap;html=1;align=center;" parent="1" vertex="1">
          <mxGeometry x="295" y="1060" width="100" height="40" as="geometry" />
        </mxCell>
        <mxCell id="-RiXx9IOLwMkelzJSr5v-148" value="id" style="ellipse;whiteSpace=wrap;html=1;align=center;fontStyle=4" parent="1" vertex="1">
          <mxGeometry x="177.5" y="1000" width="100" height="40" as="geometry" />
        </mxCell>
        <mxCell id="-RiXx9IOLwMkelzJSr5v-149" value="name" style="ellipse;whiteSpace=wrap;html=1;align=center;" parent="1" vertex="1">
          <mxGeometry x="360" y="980" width="100" height="40" as="geometry" />
        </mxCell>
        <mxCell id="-RiXx9IOLwMkelzJSr5v-151" value="" style="endArrow=none;html=1;rounded=0;entryX=0.5;entryY=1;entryDx=0;entryDy=0;" parent="1" source="-RiXx9IOLwMkelzJSr5v-147" target="-RiXx9IOLwMkelzJSr5v-148" edge="1">
          <mxGeometry relative="1" as="geometry">
            <mxPoint x="257.5" y="1110" as="sourcePoint" />
            <mxPoint x="417.5" y="1110" as="targetPoint" />
          </mxGeometry>
        </mxCell>
        <mxCell id="-RiXx9IOLwMkelzJSr5v-153" value="" style="endArrow=none;html=1;rounded=0;exitX=0.75;exitY=0;exitDx=0;exitDy=0;entryX=0;entryY=1;entryDx=0;entryDy=0;" parent="1" source="-RiXx9IOLwMkelzJSr5v-147" target="-RiXx9IOLwMkelzJSr5v-149" edge="1">
          <mxGeometry relative="1" as="geometry">
            <mxPoint x="337.5" y="1110" as="sourcePoint" />
            <mxPoint x="497.5" y="1110" as="targetPoint" />
          </mxGeometry>
        </mxCell>
        <mxCell id="-RiXx9IOLwMkelzJSr5v-159" value="teach" style="shape=rhombus;perimeter=rhombusPerimeter;whiteSpace=wrap;html=1;align=center;" parent="1" vertex="1">
          <mxGeometry x="580" y="890" width="120" height="60" as="geometry" />
        </mxCell>
        <mxCell id="-RiXx9IOLwMkelzJSr5v-170" value="take" style="shape=rhombus;perimeter=rhombusPerimeter;whiteSpace=wrap;html=1;align=center;" parent="1" vertex="1">
          <mxGeometry x="540" y="660" width="120" height="60" as="geometry" />
        </mxCell>
        <mxCell id="-RiXx9IOLwMkelzJSr5v-182" value="" style="edgeStyle=entityRelationEdgeStyle;fontSize=12;html=1;endArrow=ERmany;rounded=0;entryX=0;entryY=0.5;entryDx=0;entryDy=0;exitX=1;exitY=0.5;exitDx=0;exitDy=0;strokeWidth=1;" parent="1" source="-RiXx9IOLwMkelzJSr5v-170" target="-RiXx9IOLwMkelzJSr5v-110" edge="1">
          <mxGeometry width="100" height="100" relative="1" as="geometry">
            <mxPoint x="620" y="710" as="sourcePoint" />
            <mxPoint x="720" y="610" as="targetPoint" />
          </mxGeometry>
        </mxCell>
        <mxCell id="-RiXx9IOLwMkelzJSr5v-183" value="" style="edgeStyle=entityRelationEdgeStyle;fontSize=12;html=1;endArrow=ERone;endFill=1;rounded=0;entryX=1;entryY=0.5;entryDx=0;entryDy=0;exitX=0;exitY=0.5;exitDx=0;exitDy=0;" parent="1" source="-RiXx9IOLwMkelzJSr5v-170" target="-RiXx9IOLwMkelzJSr5v-137" edge="1">
          <mxGeometry width="100" height="100" relative="1" as="geometry">
            <mxPoint x="450" y="650" as="sourcePoint" />
            <mxPoint x="540" y="570" as="targetPoint" />
          </mxGeometry>
        </mxCell>
        <mxCell id="-RiXx9IOLwMkelzJSr5v-189" value="" style="fontSize=12;html=1;endArrow=ERmany;rounded=0;entryX=0;entryY=0.5;entryDx=0;entryDy=0;exitX=1;exitY=0.5;exitDx=0;exitDy=0;" parent="1" source="-RiXx9IOLwMkelzJSr5v-159" target="-RiXx9IOLwMkelzJSr5v-51" edge="1">
          <mxGeometry width="100" height="100" relative="1" as="geometry">
            <mxPoint x="580" y="1270" as="sourcePoint" />
            <mxPoint x="680" y="1170" as="targetPoint" />
          </mxGeometry>
        </mxCell>
        <mxCell id="-RiXx9IOLwMkelzJSr5v-190" value="" style="fontSize=12;html=1;endArrow=ERmany;rounded=0;entryX=1;entryY=0.5;entryDx=0;entryDy=0;" parent="1" source="-RiXx9IOLwMkelzJSr5v-159" target="-RiXx9IOLwMkelzJSr5v-147" edge="1">
          <mxGeometry width="100" height="100" relative="1" as="geometry">
            <mxPoint x="560" y="1240" as="sourcePoint" />
            <mxPoint x="660" y="1140" as="targetPoint" />
          </mxGeometry>
        </mxCell>
        <mxCell id="Z4-_7Ho1PNj1UGvmWx6D-5" style="edgeStyle=orthogonalEdgeStyle;rounded=0;orthogonalLoop=1;jettySize=auto;html=1;exitX=0.5;exitY=1;exitDx=0;exitDy=0;" edge="1" parent="1" source="-RiXx9IOLwMkelzJSr5v-138" target="-RiXx9IOLwMkelzJSr5v-138">
          <mxGeometry relative="1" as="geometry" />
        </mxCell>
        <mxCell id="Z4-_7Ho1PNj1UGvmWx6D-11" value="" style="endArrow=none;html=1;rounded=0;exitX=1;exitY=1;exitDx=0;exitDy=0;entryX=0.5;entryY=0;entryDx=0;entryDy=0;" edge="1" parent="1" source="-RiXx9IOLwMkelzJSr5v-137" target="-RiXx9IOLwMkelzJSr5v-159">
          <mxGeometry relative="1" as="geometry">
            <mxPoint x="490" y="820" as="sourcePoint" />
            <mxPoint x="650" y="820" as="targetPoint" />
          </mxGeometry>
        </mxCell>
        <mxCell id="Z4-_7Ho1PNj1UGvmWx6D-12" value="national_id" style="ellipse;whiteSpace=wrap;html=1;align=center;" vertex="1" parent="1">
          <mxGeometry x="720" y="710" width="100" height="40" as="geometry" />
        </mxCell>
        <mxCell id="Z4-_7Ho1PNj1UGvmWx6D-13" value="" style="endArrow=none;html=1;rounded=0;exitX=1;exitY=0.5;exitDx=0;exitDy=0;entryX=0.25;entryY=1;entryDx=0;entryDy=0;" edge="1" parent="1" source="Z4-_7Ho1PNj1UGvmWx6D-12" target="-RiXx9IOLwMkelzJSr5v-110">
          <mxGeometry relative="1" as="geometry">
            <mxPoint x="820" y="720" as="sourcePoint" />
            <mxPoint x="980" y="720" as="targetPoint" />
          </mxGeometry>
        </mxCell>
        <mxCell id="Z4-_7Ho1PNj1UGvmWx6D-14" value="national_id" style="ellipse;whiteSpace=wrap;html=1;align=center;" vertex="1" parent="1">
          <mxGeometry x="697.5" y="1030" width="100" height="40" as="geometry" />
        </mxCell>
        <mxCell id="Z4-_7Ho1PNj1UGvmWx6D-15" value="" style="endArrow=none;html=1;rounded=0;exitX=1;exitY=0.5;exitDx=0;exitDy=0;" edge="1" parent="1" source="Z4-_7Ho1PNj1UGvmWx6D-14">
          <mxGeometry relative="1" as="geometry">
            <mxPoint x="797.5" y="1040" as="sourcePoint" />
            <mxPoint x="880" y="1090" as="targetPoint" />
          </mxGeometry>
        </mxCell>
      </root>
    </mxGraphModel>
  </diagram>
</mxfile>
